<?xml version="1.0" encoding="UTF-8" standalone="no"?><svg xmlns="http://www.w3.org/2000/svg" xmlns:xlink="http://www.w3.org/1999/xlink" clip-rule="evenodd" stroke-miterlimit="10" viewBox="0 0 1200 1800"><desc>SVG generated by Keynote</desc><defs><pattern id="A1B80766-1C34-481D-B4EF-F0EBA6717761" patternUnits="userSpaceOnUse" width="600" height="600" viewBox="0 0 600 600"><image xlink:href="../../E784A514-92E6-4957-BD8E-85726FA88C3F/assets/C3C0FC898C94653CAF8AD846D6CCD108.png" width="600.00" height="600.00"></image></pattern><pattern id="E6B65073-B749-4AE4-96C0-F3F6C6563857" patternUnits="userSpaceOnUse" width="600" height="600" viewBox="0 0 600 600"><image xlink:href="../../E784A514-92E6-4957-BD8E-85726FA88C3F/assets/C3C0FC898C94653CAF8AD846D6CCD108.png" width="600.00" height="600.00"></image></pattern></defs><g transform="matrix(1.00, 0.00, -0.00, -1.00, 0.0, 1800.0)"><path d="M 0.0 1800.0 L 1200.0 1800.0 L 1200.0 0.0 L 0.0 0.0 Z M 0.0 1800.0 " fill="#FEFFFF"></path><image xlink:href="../../E784A514-92E6-4957-BD8E-85726FA88C3F/assets/B12F1F2EBD6425245A83D1B8C8F2B3AD.png" width="1200.00" height="1800.00" transform="matrix(1.00, 0.00, -0.00, -1.00, 0.0, 1800.0)"></image><g><clipPath id="clip0x7fc5944bf100"><path d="M 186.0 34.0 L 1015.0 34.0 L 1015.0 1766.0 L 186.0 1766.0 Z M 186.0 34.0 "></path></clipPath><g clip-path="url(#clip0x7fc5944bf100)"><image xlink:href="../../E784A514-92E6-4957-BD8E-85726FA88C3F/assets/399FA4876057B1559A3CA25AFD5D453D.png" width="829.00" height="1732.00" transform="matrix(1.00, 0.00, -0.00, -1.00, 186.0, 1766.0)"></image></g></g><image xlink:href="../../E784A514-92E6-4957-BD8E-85726FA88C3F/assets/F41B7E91FC6D6D7CBB8B7CBB59A38601.png" width="3455.00" height="505.00" transform="matrix(0.24, 0.00, -0.00, -0.24, 185.5, 34.0)"></image><g opacity="0.00"><g><clipPath id="clip0x7fc59462a760"><path d="M 600.0 239.0 L 959.0 239.0 L 959.0 362.0 L 600.0 362.0 Z M 600.0 239.0 "></path></clipPath><g clip-path="url(#clip0x7fc59462a760)"><image xlink:href="../../173F9A26-914A-4A5E-AAD8-650CB3DB35C5/assets/ADCBDABE10A3DB47A8B518C112780DF5.png" width="357.00" height="116.00" transform="matrix(1.00, 0.00, -0.00, -1.00, 601.0, 357.0)" opacity="0.50"></image></g></g><g><clipPath id="clip0x7fc594623490"><path d="M 604.0 356.0 L 955.0 356.0 L 955.0 246.0 L 604.0 246.0 Z M 604.0 356.0 "></path></clipPath><g clip-path="url(#clip0x7fc594623490)"><g><clipPath id="clip0x7fc594623dc0"><path d="M 600.0 239.0 L 959.0 239.0 L 959.0 362.0 L 600.0 362.0 Z M 600.0 239.0 "></path></clipPath><g clip-path="url(#clip0x7fc594623dc0)"><path d="M 604.0 246.0 L 955.0 246.0 L 955.0 356.0 L 604.0 356.0 Z M 604.0 246.0 " fill="url(#A1B80766-1C34-481D-B4EF-F0EBA6717761)"></path></g></g></g></g></g><g opacity="0.00"><g><clipPath id="clip0x7fc5944c4360"><path d="M 238.0 239.0 L 597.0 239.0 L 597.0 362.0 L 238.0 362.0 Z M 238.0 239.0 "></path></clipPath><g clip-path="url(#clip0x7fc5944c4360)"><image xlink:href="../../173F9A26-914A-4A5E-AAD8-650CB3DB35C5/assets/ADCBDABE10A3DB47A8B518C112780DF5.png" width="357.00" height="116.00" transform="matrix(1.00, 0.00, -0.00, -1.00, 239.0, 357.0)" opacity="0.50"></image></g></g><g><clipPath id="clip0x7fc5941a4fe0"><path d="M 242.0 356.0 L 593.0 356.0 L 593.0 246.0 L 242.0 246.0 Z M 242.0 356.0 "></path></clipPath><g clip-path="url(#clip0x7fc5941a4fe0)"><g><clipPath id="clip0x7fc5941a5760"><path d="M 238.0 239.0 L 597.0 239.0 L 597.0 362.0 L 238.0 362.0 Z M 238.0 239.0 "></path></clipPath><g clip-path="url(#clip0x7fc5941a5760)"><path d="M 242.0 246.0 L 593.0 246.0 L 593.0 356.0 L 242.0 356.0 Z M 242.0 246.0 " fill="url(#E6B65073-B749-4AE4-96C0-F3F6C6563857)"></path></g></g></g></g></g><g opacity="0.00"><g><clipPath id="clip0x7fc594631f30"><path d="M 404.0 830.0 L 563.0 830.0 L 563.0 942.0 L 404.0 942.0 Z M 404.0 830.0 "></path></clipPath><g clip-path="url(#clip0x7fc594631f30)"><image xlink:href="../../F95DC42C-F9F2-4285-A6BE-E84248208340/assets/127A43C53060DA5767314919FF689DF3.png" width="156.00" height="106.00" transform="matrix(1.00, 0.00, -0.00, -1.00, 405.0, 937.0)" opacity="0.50"></image></g></g><g><clipPath id="clip0x7fc5944c5bb0"><path d="M 408.0 936.0 L 558.0 936.0 L 558.0 836.0 L 408.0 836.0 Z M 408.0 936.0 "></path></clipPath><g clip-path="url(#clip0x7fc5944c5bb0)"><g><clipPath id="clip0x7fc5944c3bf0"><path d="M 404.0 830.0 L 563.0 830.0 L 563.0 942.0 L 404.0 942.0 Z M 404.0 830.0 "></path></clipPath><g clip-path="url(#clip0x7fc5944c3bf0)"><image xlink:href="../../E784A514-92E6-4957-BD8E-85726FA88C3F/assets/C3C0FC898C94653CAF8AD846D6CCD108.png" width="600.00" height="600.00" transform="matrix(0.50, 0.00, -0.00, -0.50, 408.0, 936.0)"></image></g></g></g></g></g><g opacity="0.00"><g><clipPath id="clip0x7fc5946343e0"><path d="M 638.0 830.0 L 797.0 830.0 L 797.0 942.0 L 638.0 942.0 Z M 638.0 830.0 "></path></clipPath><g clip-path="url(#clip0x7fc5946343e0)"><image xlink:href="../../F95DC42C-F9F2-4285-A6BE-E84248208340/assets/127A43C53060DA5767314919FF689DF3.png" width="156.00" height="106.00" transform="matrix(1.00, 0.00, -0.00, -1.00, 639.0, 937.0)" opacity="0.50"></image></g></g><g><clipPath id="clip0x7fc5941a73a0"><path d="M 642.0 936.0 L 792.0 936.0 L 792.0 836.0 L 642.0 836.0 Z M 642.0 936.0 "></path></clipPath><g clip-path="url(#clip0x7fc5941a73a0)"><g><clipPath id="clip0x7fc5941a9020"><path d="M 638.0 830.0 L 797.0 830.0 L 797.0 942.0 L 638.0 942.0 Z M 638.0 830.0 "></path></clipPath><g clip-path="url(#clip0x7fc5941a9020)"><image xlink:href="../../E784A514-92E6-4957-BD8E-85726FA88C3F/assets/C3C0FC898C94653CAF8AD846D6CCD108.png" width="600.00" height="600.00" transform="matrix(0.50, 0.00, -0.00, -0.50, 642.0, 936.0)"></image></g></g></g></g></g></g></svg>