<?xml version="1.0" encoding="UTF-8" standalone="no"?><svg xmlns="http://www.w3.org/2000/svg" xmlns:xlink="http://www.w3.org/1999/xlink" clip-rule="evenodd" stroke-miterlimit="10" viewBox="0 0 1200 1800"><desc>SVG generated by Keynote</desc><defs><pattern id="98E26811-3103-48F1-9612-D89D3DD3A9E5" patternUnits="userSpaceOnUse" width="600" height="600" viewBox="0 0 600 600"><image xlink:href="../../E784A514-92E6-4957-BD8E-85726FA88C3F/assets/C3C0FC898C94653CAF8AD846D6CCD108.png" width="600.00" height="600.00"></image></pattern><pattern id="C9F4E55A-2E14-4401-8C08-5B7203600B39" patternUnits="userSpaceOnUse" width="600" height="600" viewBox="0 0 600 600"><image xlink:href="../../E784A514-92E6-4957-BD8E-85726FA88C3F/assets/C3C0FC898C94653CAF8AD846D6CCD108.png" width="600.00" height="600.00"></image></pattern><pattern id="9A5E041C-8080-432A-A2D8-9F92EE80A084" patternUnits="userSpaceOnUse" width="600" height="600" viewBox="0 0 600 600"><image xlink:href="../../E784A514-92E6-4957-BD8E-85726FA88C3F/assets/C3C0FC898C94653CAF8AD846D6CCD108.png" width="600.00" height="600.00"></image></pattern></defs><g transform="matrix(1.00, 0.00, -0.00, -1.00, 0.0, 1800.0)"><path d="M 0.0 1800.0 L 1200.0 1800.0 L 1200.0 0.0 L 0.0 0.0 Z M 0.0 1800.0 " fill="#FEFFFF"></path><image xlink:href="../../E784A514-92E6-4957-BD8E-85726FA88C3F/assets/B12F1F2EBD6425245A83D1B8C8F2B3AD.png" width="1200.00" height="1800.00" transform="matrix(1.00, 0.00, -0.00, -1.00, 0.0, 1800.0)"></image><g><clipPath id="clip0x7fc59592f730"><path d="M 186.0 34.0 L 1015.0 34.0 L 1015.0 1766.0 L 186.0 1766.0 Z M 186.0 34.0 "></path></clipPath><g clip-path="url(#clip0x7fc59592f730)"><image xlink:href="../../E784A514-92E6-4957-BD8E-85726FA88C3F/assets/399FA4876057B1559A3CA25AFD5D453D.png" width="829.00" height="1732.00" transform="matrix(1.00, 0.00, -0.00, -1.00, 186.0, 1766.0)"></image></g></g><image xlink:href="../../E784A514-92E6-4957-BD8E-85726FA88C3F/assets/F41B7E91FC6D6D7CBB8B7CBB59A38601.png" width="3455.00" height="505.00" transform="matrix(0.24, 0.00, -0.00, -0.24, 185.5, 34.0)"></image><g opacity="0.00"><g><clipPath id="clip0x7fc595864020"><path d="M 276.0 512.0 L 924.0 512.0 L 924.0 648.0 L 276.0 648.0 Z M 276.0 512.0 "></path></clipPath><g clip-path="url(#clip0x7fc595864020)"><image xlink:href="../../DB936FEF-8109-42CC-82F4-7C5410DECE49/assets/23195AB5215ED37C745093BB96F618D4.png" width="644.00" height="130.00" transform="matrix(1.00, 0.00, -0.00, -1.00, 277.8, 643.0)" opacity="0.50"></image></g></g><g><clipPath id="clip0x7fc59586bf90"><path d="M 281.0 642.0 L 919.0 642.0 L 919.0 518.0 L 281.0 518.0 Z M 280.8 642.0 "></path></clipPath><g clip-path="url(#clip0x7fc59586bf90)"><g><clipPath id="clip0x7fc595871820"><path d="M 276.0 512.0 L 924.0 512.0 L 924.0 648.0 L 276.0 648.0 Z M 276.0 512.0 "></path></clipPath><g clip-path="url(#clip0x7fc595871820)"><path d="M 281.0 518.0 L 919.0 518.0 L 919.0 642.0 L 281.0 642.0 Z M 281.0 518.0 " fill="url(#98E26811-3103-48F1-9612-D89D3DD3A9E5)"></path></g></g></g></g></g><g opacity="0.00"><g><clipPath id="clip0x7fc595935d40"><path d="M 276.0 344.0 L 924.0 344.0 L 924.0 480.0 L 276.0 480.0 Z M 276.0 344.0 "></path></clipPath><g clip-path="url(#clip0x7fc595935d40)"><image xlink:href="../../DB936FEF-8109-42CC-82F4-7C5410DECE49/assets/23195AB5215ED37C745093BB96F618D4.png" width="644.00" height="130.00" transform="matrix(1.00, 0.00, -0.00, -1.00, 277.8, 475.0)" opacity="0.50"></image></g></g><g><clipPath id="clip0x7fc595937030"><path d="M 281.0 474.0 L 919.0 474.0 L 919.0 350.0 L 281.0 350.0 Z M 280.8 474.0 "></path></clipPath><g clip-path="url(#clip0x7fc595937030)"><g><clipPath id="clip0x7fc595937e40"><path d="M 276.0 344.0 L 924.0 344.0 L 924.0 480.0 L 276.0 480.0 Z M 276.0 344.0 "></path></clipPath><g clip-path="url(#clip0x7fc595937e40)"><path d="M 281.0 350.0 L 919.0 350.0 L 919.0 474.0 L 281.0 474.0 Z M 281.0 350.0 " fill="url(#C9F4E55A-2E14-4401-8C08-5B7203600B39)"></path></g></g></g></g></g><g opacity="0.00"><g><clipPath id="clip0x7fc595874890"><path d="M 276.0 762.0 L 924.0 762.0 L 924.0 898.0 L 276.0 898.0 Z M 276.0 762.0 "></path></clipPath><g clip-path="url(#clip0x7fc595874890)"><image xlink:href="../../DB936FEF-8109-42CC-82F4-7C5410DECE49/assets/23195AB5215ED37C745093BB96F618D4.png" width="644.00" height="130.00" transform="matrix(1.00, 0.00, -0.00, -1.00, 277.8, 893.0)" opacity="0.50"></image></g></g><g><clipPath id="clip0x7fc595938f90"><path d="M 281.0 892.0 L 919.0 892.0 L 919.0 768.0 L 281.0 768.0 Z M 280.8 892.0 "></path></clipPath><g clip-path="url(#clip0x7fc595938f90)"><g><clipPath id="clip0x7fc595939730"><path d="M 276.0 762.0 L 924.0 762.0 L 924.0 898.0 L 276.0 898.0 Z M 276.0 762.0 "></path></clipPath><g clip-path="url(#clip0x7fc595939730)"><path d="M 281.0 768.0 L 919.0 768.0 L 919.0 892.0 L 281.0 892.0 Z M 281.0 768.0 " fill="url(#9A5E041C-8080-432A-A2D8-9F92EE80A084)"></path></g></g></g></g></g><g opacity="0.00"><g><clipPath id="clip0x7fc59593ce50"><path d="M 228.0 1438.0 L 336.0 1438.0 L 336.0 1550.0 L 228.0 1550.0 Z M 228.0 1438.0 "></path></clipPath><g clip-path="url(#clip0x7fc59593ce50)"><image xlink:href="../../9F8AC0EC-5214-42B3-8230-ACD57D3D19B2/assets/7E27D7D74B2DA92C336D6AD660991410.png" width="106.00" height="106.00" transform="matrix(1.00, 0.00, -0.00, -1.00, 229.0, 1545.0)" opacity="0.50"></image></g></g><g><clipPath id="clip0x7fc59593e730"><path d="M 232.0 1544.0 L 332.0 1544.0 L 332.0 1444.0 L 232.0 1444.0 Z M 232.0 1544.0 "></path></clipPath><g clip-path="url(#clip0x7fc59593e730)"><g><clipPath id="clip0x7fc59593eed0"><path d="M 228.0 1438.0 L 336.0 1438.0 L 336.0 1550.0 L 228.0 1550.0 Z M 228.0 1438.0 "></path></clipPath><g clip-path="url(#clip0x7fc59593eed0)"><image xlink:href="../../E784A514-92E6-4957-BD8E-85726FA88C3F/assets/C3C0FC898C94653CAF8AD846D6CCD108.png" width="600.00" height="600.00" transform="matrix(0.50, 0.00, -0.00, -0.50, 232.0, 1544.0)"></image></g></g></g></g></g></g></svg>