<?xml version="1.0" encoding="UTF-8" standalone="no"?><svg xmlns="http://www.w3.org/2000/svg" xmlns:xlink="http://www.w3.org/1999/xlink" clip-rule="evenodd" stroke-miterlimit="10" viewBox="0 0 1200 1800"><desc>SVG generated by Keynote</desc><defs><pattern id="ED0EE2AF-D1C3-4570-93A6-BD9FFF517C44" patternUnits="userSpaceOnUse" width="600" height="600" viewBox="0 0 600 600"><image xlink:href="../../E784A514-92E6-4957-BD8E-85726FA88C3F/assets/C3C0FC898C94653CAF8AD846D6CCD108.png" width="600.00" height="600.00"></image></pattern><pattern id="2882B2AE-A4F8-4E3D-833A-BA20F47A6594" patternUnits="userSpaceOnUse" width="600" height="600" viewBox="0 0 600 600"><image xlink:href="../../E784A514-92E6-4957-BD8E-85726FA88C3F/assets/C3C0FC898C94653CAF8AD846D6CCD108.png" width="600.00" height="600.00"></image></pattern></defs><g transform="matrix(1.00, 0.00, -0.00, -1.00, 0.0, 1800.0)"><path d="M 0.0 1800.0 L 1200.0 1800.0 L 1200.0 0.0 L 0.0 0.0 Z M 0.0 1800.0 " fill="#FEFFFF"></path><image xlink:href="../../E784A514-92E6-4957-BD8E-85726FA88C3F/assets/B12F1F2EBD6425245A83D1B8C8F2B3AD.png" width="1200.00" height="1800.00" transform="matrix(1.00, 0.00, -0.00, -1.00, 0.0, 1800.0)"></image><g><clipPath id="clip0x7fc5945b10c0"><path d="M 186.0 34.0 L 1015.0 34.0 L 1015.0 1766.0 L 186.0 1766.0 Z M 186.0 34.0 "></path></clipPath><g clip-path="url(#clip0x7fc5945b10c0)"><image xlink:href="../../E784A514-92E6-4957-BD8E-85726FA88C3F/assets/399FA4876057B1559A3CA25AFD5D453D.png" width="829.00" height="1732.00" transform="matrix(1.00, 0.00, -0.00, -1.00, 186.0, 1766.0)"></image></g></g><image xlink:href="../../E784A514-92E6-4957-BD8E-85726FA88C3F/assets/F41B7E91FC6D6D7CBB8B7CBB59A38601.png" width="3455.00" height="505.00" transform="matrix(0.24, 0.00, -0.00, -0.24, 185.5, 34.0)"></image><g opacity="0.00"><g><clipPath id="clip0x7fc59419b260"><path d="M 600.0 239.0 L 959.0 239.0 L 959.0 362.0 L 600.0 362.0 Z M 600.0 239.0 "></path></clipPath><g clip-path="url(#clip0x7fc59419b260)"><image xlink:href="../../173F9A26-914A-4A5E-AAD8-650CB3DB35C5/assets/ADCBDABE10A3DB47A8B518C112780DF5.png" width="357.00" height="116.00" transform="matrix(1.00, 0.00, -0.00, -1.00, 601.0, 357.0)" opacity="0.50"></image></g></g><g><clipPath id="clip0x7fc5944379a0"><path d="M 604.0 356.0 L 955.0 356.0 L 955.0 246.0 L 604.0 246.0 Z M 604.0 356.0 "></path></clipPath><g clip-path="url(#clip0x7fc5944379a0)"><g><clipPath id="clip0x7fc59443db70"><path d="M 600.0 239.0 L 959.0 239.0 L 959.0 362.0 L 600.0 362.0 Z M 600.0 239.0 "></path></clipPath><g clip-path="url(#clip0x7fc59443db70)"><path d="M 604.0 246.0 L 955.0 246.0 L 955.0 356.0 L 604.0 356.0 Z M 604.0 246.0 " fill="url(#ED0EE2AF-D1C3-4570-93A6-BD9FFF517C44)"></path></g></g></g></g></g><g opacity="0.00"><g><clipPath id="clip0x7fc5945b3370"><path d="M 238.0 239.0 L 597.0 239.0 L 597.0 362.0 L 238.0 362.0 Z M 238.0 239.0 "></path></clipPath><g clip-path="url(#clip0x7fc5945b3370)"><image xlink:href="../../173F9A26-914A-4A5E-AAD8-650CB3DB35C5/assets/ADCBDABE10A3DB47A8B518C112780DF5.png" width="357.00" height="116.00" transform="matrix(1.00, 0.00, -0.00, -1.00, 239.0, 357.0)" opacity="0.50"></image></g></g><g><clipPath id="clip0x7fc5945b4670"><path d="M 242.0 356.0 L 593.0 356.0 L 593.0 246.0 L 242.0 246.0 Z M 242.0 356.0 "></path></clipPath><g clip-path="url(#clip0x7fc5945b4670)"><g><clipPath id="clip0x7fc5945b5460"><path d="M 238.0 239.0 L 597.0 239.0 L 597.0 362.0 L 238.0 362.0 Z M 238.0 239.0 "></path></clipPath><g clip-path="url(#clip0x7fc5945b5460)"><path d="M 242.0 246.0 L 593.0 246.0 L 593.0 356.0 L 242.0 356.0 Z M 242.0 246.0 " fill="url(#2882B2AE-A4F8-4E3D-833A-BA20F47A6594)"></path></g></g></g></g></g></g></svg>