<?xml version="1.0" encoding="UTF-8" standalone="no"?><svg xmlns="http://www.w3.org/2000/svg" xmlns:xlink="http://www.w3.org/1999/xlink" clip-rule="evenodd" stroke-miterlimit="10" viewBox="0 0 1200 1800"><desc>SVG generated by Keynote</desc><defs><pattern id="C6DFA584-912C-4DB1-8751-337D50EE5279" patternUnits="userSpaceOnUse" width="600" height="600" viewBox="0 0 600 600"><image xlink:href="../../E784A514-92E6-4957-BD8E-85726FA88C3F/assets/C3C0FC898C94653CAF8AD846D6CCD108.png" width="600.00" height="600.00"></image></pattern><pattern id="C9C32B88-EA59-40CC-8076-9EDE43A4BE5E" patternUnits="userSpaceOnUse" width="600" height="600" viewBox="0 0 600 600"><image xlink:href="../../E784A514-92E6-4957-BD8E-85726FA88C3F/assets/C3C0FC898C94653CAF8AD846D6CCD108.png" width="600.00" height="600.00"></image></pattern></defs><g transform="matrix(1.00, 0.00, -0.00, -1.00, 0.0, 1800.0)"><path d="M 0.0 1800.0 L 1200.0 1800.0 L 1200.0 0.0 L 0.0 0.0 Z M 0.0 1800.0 " fill="#FEFFFF"></path><image xlink:href="../../E784A514-92E6-4957-BD8E-85726FA88C3F/assets/B12F1F2EBD6425245A83D1B8C8F2B3AD.png" width="1200.00" height="1800.00" transform="matrix(1.00, 0.00, -0.00, -1.00, 0.0, 1800.0)"></image><g><clipPath id="clip0x7fc5943e9ec0"><path d="M 186.0 34.0 L 1015.0 34.0 L 1015.0 1766.0 L 186.0 1766.0 Z M 186.0 34.0 "></path></clipPath><g clip-path="url(#clip0x7fc5943e9ec0)"><image xlink:href="../../E784A514-92E6-4957-BD8E-85726FA88C3F/assets/399FA4876057B1559A3CA25AFD5D453D.png" width="829.00" height="1732.00" transform="matrix(1.00, 0.00, -0.00, -1.00, 186.0, 1766.0)"></image></g></g><image xlink:href="../../E784A514-92E6-4957-BD8E-85726FA88C3F/assets/F41B7E91FC6D6D7CBB8B7CBB59A38601.png" width="3455.00" height="505.00" transform="matrix(0.24, 0.00, -0.00, -0.24, 185.5, 34.0)"></image><g opacity="0.00"><g><clipPath id="clip0x7fc5945217b0"><path d="M 282.0 374.0 L 919.0 374.0 L 919.0 498.0 L 282.0 498.0 Z M 282.0 374.0 "></path></clipPath><g clip-path="url(#clip0x7fc5945217b0)"><image xlink:href="../../E784A514-92E6-4957-BD8E-85726FA88C3F/assets/E68250DD079464B34EE370B5F654D3FD.png" width="634.00" height="118.00" transform="matrix(1.00, 0.00, -0.00, -1.00, 283.0, 493.0)" opacity="0.50"></image></g></g><g><clipPath id="clip0x7fc59452f210"><path d="M 286.0 492.0 L 914.0 492.0 L 914.0 380.0 L 286.0 380.0 Z M 286.0 492.0 "></path></clipPath><g clip-path="url(#clip0x7fc59452f210)"><g><clipPath id="clip0x7fc59452fa40"><path d="M 282.0 374.0 L 919.0 374.0 L 919.0 498.0 L 282.0 498.0 Z M 282.0 374.0 "></path></clipPath><g clip-path="url(#clip0x7fc59452fa40)"><path d="M 286.0 380.0 L 914.0 380.0 L 914.0 492.0 L 286.0 492.0 Z M 286.0 380.0 " fill="url(#C6DFA584-912C-4DB1-8751-337D50EE5279)"></path></g></g></g></g></g><g opacity="0.00"><g><clipPath id="clip0x7fc5942bfd40"><path d="M 376.0 254.0 L 825.0 254.0 L 825.0 366.0 L 376.0 366.0 Z M 376.0 254.0 "></path></clipPath><g clip-path="url(#clip0x7fc5942bfd40)"><image xlink:href="../../E784A514-92E6-4957-BD8E-85726FA88C3F/assets/3A04988FEA10A6FD1D3BA76F8D6B4763.png" width="446.00" height="106.00" transform="matrix(1.00, 0.00, -0.00, -1.00, 377.0, 361.0)" opacity="0.50"></image></g></g><g><clipPath id="clip0x7fc5943ec730"><path d="M 380.0 360.0 L 820.0 360.0 L 820.0 260.0 L 380.0 260.0 Z M 380.0 360.0 "></path></clipPath><g clip-path="url(#clip0x7fc5943ec730)"><g><clipPath id="clip0x7fc5943ebd60"><path d="M 376.0 254.0 L 825.0 254.0 L 825.0 366.0 L 376.0 366.0 Z M 376.0 254.0 "></path></clipPath><g clip-path="url(#clip0x7fc5943ebd60)"><path d="M 380.0 260.0 L 820.0 260.0 L 820.0 360.0 L 380.0 360.0 Z M 380.0 260.0 " fill="url(#C9C32B88-EA59-40CC-8076-9EDE43A4BE5E)"></path></g></g></g></g></g><g opacity="0.00"><g><clipPath id="clip0x7fc594190400"><path d="M 668.0 568.0 L 929.0 568.0 L 929.0 680.0 L 668.0 680.0 Z M 668.0 568.0 "></path></clipPath><g clip-path="url(#clip0x7fc594190400)"><image xlink:href="../../E784A514-92E6-4957-BD8E-85726FA88C3F/assets/C8022DD87A39BD09903A76AF1192EF38.png" width="259.00" height="106.00" transform="matrix(1.00, 0.00, -0.00, -1.00, 669.0, 675.0)" opacity="0.50"></image></g></g><g><clipPath id="clip0x7fc594192990"><path d="M 672.0 674.0 L 925.0 674.0 L 925.0 574.0 L 672.0 574.0 Z M 672.0 674.0 "></path></clipPath><g clip-path="url(#clip0x7fc594192990)"><g><clipPath id="clip0x7fc5941937a0"><path d="M 668.0 568.0 L 929.0 568.0 L 929.0 680.0 L 668.0 680.0 Z M 668.0 568.0 "></path></clipPath><g clip-path="url(#clip0x7fc5941937a0)"><image xlink:href="../../E784A514-92E6-4957-BD8E-85726FA88C3F/assets/C3C0FC898C94653CAF8AD846D6CCD108.png" width="600.00" height="600.00" transform="matrix(0.50, 0.00, -0.00, -0.50, 672.0, 674.0)"></image></g></g></g></g></g></g></svg>