<?xml version="1.0" encoding="UTF-8" standalone="no"?><svg xmlns="http://www.w3.org/2000/svg" xmlns:xlink="http://www.w3.org/1999/xlink" clip-rule="evenodd" stroke-miterlimit="10" viewBox="0 0 1200 1800"><desc>SVG generated by Keynote</desc><defs><pattern id="077D3903-79B6-44E2-BCFE-43095F1C1815" patternUnits="userSpaceOnUse" width="600" height="600" viewBox="0 0 600 600"><image xlink:href="../../E784A514-92E6-4957-BD8E-85726FA88C3F/assets/C3C0FC898C94653CAF8AD846D6CCD108.png" width="600.00" height="600.00"></image></pattern><pattern id="ADEB109B-53C3-40B2-B981-C42BBDC84F35" patternUnits="userSpaceOnUse" width="600" height="600" viewBox="0 0 600 600"><image xlink:href="../../E784A514-92E6-4957-BD8E-85726FA88C3F/assets/C3C0FC898C94653CAF8AD846D6CCD108.png" width="600.00" height="600.00"></image></pattern><pattern id="E1B153A3-BD65-437D-B8AD-55F006309936" patternUnits="userSpaceOnUse" width="600" height="600" viewBox="0 0 600 600"><image xlink:href="../../E784A514-92E6-4957-BD8E-85726FA88C3F/assets/C3C0FC898C94653CAF8AD846D6CCD108.png" width="600.00" height="600.00"></image></pattern><pattern id="796FD33B-7753-4BD4-B347-382A5BF682FE" patternUnits="userSpaceOnUse" width="600" height="600" viewBox="0 0 600 600"><image xlink:href="../../E784A514-92E6-4957-BD8E-85726FA88C3F/assets/C3C0FC898C94653CAF8AD846D6CCD108.png" width="600.00" height="600.00"></image></pattern></defs><g transform="matrix(1.00, 0.00, -0.00, -1.00, 0.0, 1800.0)"><path d="M 0.0 1800.0 L 1200.0 1800.0 L 1200.0 0.0 L 0.0 0.0 Z M 0.0 1800.0 " fill="#FEFFFF"></path><image xlink:href="../../E784A514-92E6-4957-BD8E-85726FA88C3F/assets/B12F1F2EBD6425245A83D1B8C8F2B3AD.png" width="1200.00" height="1800.00" transform="matrix(1.00, 0.00, -0.00, -1.00, 0.0, 1800.0)"></image><g><clipPath id="clip0x7fc595833250"><path d="M 186.0 34.0 L 1015.0 34.0 L 1015.0 1766.0 L 186.0 1766.0 Z M 186.0 34.0 "></path></clipPath><g clip-path="url(#clip0x7fc595833250)"><image xlink:href="../../E784A514-92E6-4957-BD8E-85726FA88C3F/assets/399FA4876057B1559A3CA25AFD5D453D.png" width="829.00" height="1732.00" transform="matrix(1.00, 0.00, -0.00, -1.00, 186.0, 1766.0)"></image></g></g><image xlink:href="../../E784A514-92E6-4957-BD8E-85726FA88C3F/assets/F41B7E91FC6D6D7CBB8B7CBB59A38601.png" width="3455.00" height="505.00" transform="matrix(0.24, 0.00, -0.00, -0.24, 185.5, 34.0)"></image><g opacity="0.00"><g><clipPath id="clip0x7fc595830660"><path d="M 226.0 1273.0 L 813.0 1273.0 L 813.0 1415.0 L 226.0 1415.0 Z M 226.0 1273.0 "></path></clipPath><g clip-path="url(#clip0x7fc595830660)"><image xlink:href="../../0AB12E2F-4312-4E27-84DE-198554B52C8F/assets/D41F6C121BC5C340F977955FF3E9CCE1.png" width="585.00" height="136.00" transform="matrix(1.00, 0.00, -0.00, -1.00, 227.0, 1410.0)" opacity="0.50"></image></g></g><g><clipPath id="clip0x7fc5947c5bd0"><path d="M 230.0 1409.0 L 809.0 1409.0 L 809.0 1279.0 L 230.0 1279.0 Z M 230.0 1409.0 "></path></clipPath><g clip-path="url(#clip0x7fc5947c5bd0)"><g><clipPath id="clip0x7fc5947bf280"><path d="M 226.0 1273.0 L 813.0 1273.0 L 813.0 1415.0 L 226.0 1415.0 Z M 226.0 1273.0 "></path></clipPath><g clip-path="url(#clip0x7fc5947bf280)"><path d="M 230.0 1279.0 L 809.0 1279.0 L 809.0 1409.0 L 230.0 1409.0 Z M 230.0 1279.0 " fill="url(#077D3903-79B6-44E2-BCFE-43095F1C1815)"></path></g></g></g></g></g><g opacity="0.00"><g><clipPath id="clip0x7fc5947ce3d0"><path d="M 226.0 1141.0 L 813.0 1141.0 L 813.0 1283.0 L 226.0 1283.0 Z M 226.0 1141.0 "></path></clipPath><g clip-path="url(#clip0x7fc5947ce3d0)"><image xlink:href="../../0AB12E2F-4312-4E27-84DE-198554B52C8F/assets/D41F6C121BC5C340F977955FF3E9CCE1.png" width="585.00" height="136.00" transform="matrix(1.00, 0.00, -0.00, -1.00, 227.0, 1278.0)" opacity="0.50"></image></g></g><g><clipPath id="clip0x7fc5947cf790"><path d="M 230.0 1277.0 L 809.0 1277.0 L 809.0 1147.0 L 230.0 1147.0 Z M 230.0 1277.0 "></path></clipPath><g clip-path="url(#clip0x7fc5947cf790)"><g><clipPath id="clip0x7fc5947d04d0"><path d="M 226.0 1141.0 L 813.0 1141.0 L 813.0 1283.0 L 226.0 1283.0 Z M 226.0 1141.0 "></path></clipPath><g clip-path="url(#clip0x7fc5947d04d0)"><path d="M 230.0 1147.0 L 809.0 1147.0 L 809.0 1277.0 L 230.0 1277.0 Z M 230.0 1147.0 " fill="url(#ADEB109B-53C3-40B2-B981-C42BBDC84F35)"></path></g></g></g></g></g><g opacity="0.00"><g><clipPath id="clip0x7fc5947d3150"><path d="M 226.0 1015.0 L 813.0 1015.0 L 813.0 1157.0 L 226.0 1157.0 Z M 226.0 1015.0 "></path></clipPath><g clip-path="url(#clip0x7fc5947d3150)"><image xlink:href="../../0AB12E2F-4312-4E27-84DE-198554B52C8F/assets/D41F6C121BC5C340F977955FF3E9CCE1.png" width="585.00" height="136.00" transform="matrix(1.00, 0.00, -0.00, -1.00, 227.0, 1152.0)" opacity="0.50"></image></g></g><g><clipPath id="clip0x7fc5947d4520"><path d="M 230.0 1151.0 L 809.0 1151.0 L 809.0 1021.0 L 230.0 1021.0 Z M 230.0 1151.0 "></path></clipPath><g clip-path="url(#clip0x7fc5947d4520)"><g><clipPath id="clip0x7fc5947d5260"><path d="M 226.0 1015.0 L 813.0 1015.0 L 813.0 1157.0 L 226.0 1157.0 Z M 226.0 1015.0 "></path></clipPath><g clip-path="url(#clip0x7fc5947d5260)"><path d="M 230.0 1021.0 L 809.0 1021.0 L 809.0 1151.0 L 230.0 1151.0 Z M 230.0 1021.0 " fill="url(#E1B153A3-BD65-437D-B8AD-55F006309936)"></path></g></g></g></g></g><g opacity="0.00"><g><clipPath id="clip0x7fc5947d7c00"><path d="M 226.0 889.0 L 813.0 889.0 L 813.0 1031.0 L 226.0 1031.0 Z M 226.0 889.0 "></path></clipPath><g clip-path="url(#clip0x7fc5947d7c00)"><image xlink:href="../../0AB12E2F-4312-4E27-84DE-198554B52C8F/assets/D41F6C121BC5C340F977955FF3E9CCE1.png" width="585.00" height="136.00" transform="matrix(1.00, 0.00, -0.00, -1.00, 227.0, 1026.0)" opacity="0.50"></image></g></g><g><clipPath id="clip0x7fc5947d8f90"><path d="M 230.0 1025.0 L 809.0 1025.0 L 809.0 895.0 L 230.0 895.0 Z M 230.0 1025.0 "></path></clipPath><g clip-path="url(#clip0x7fc5947d8f90)"><g><clipPath id="clip0x7fc5947d9cd0"><path d="M 226.0 889.0 L 813.0 889.0 L 813.0 1031.0 L 226.0 1031.0 Z M 226.0 889.0 "></path></clipPath><g clip-path="url(#clip0x7fc5947d9cd0)"><path d="M 230.0 895.0 L 809.0 895.0 L 809.0 1025.0 L 230.0 1025.0 Z M 230.0 895.0 " fill="url(#796FD33B-7753-4BD4-B347-382A5BF682FE)"></path></g></g></g></g></g><g opacity="0.00"><g><clipPath id="clip0x7fc5947dcc80"><path d="M 228.0 1438.0 L 336.0 1438.0 L 336.0 1550.0 L 228.0 1550.0 Z M 228.0 1438.0 "></path></clipPath><g clip-path="url(#clip0x7fc5947dcc80)"><image xlink:href="../../9F8AC0EC-5214-42B3-8230-ACD57D3D19B2/assets/7E27D7D74B2DA92C336D6AD660991410.png" width="106.00" height="106.00" transform="matrix(1.00, 0.00, -0.00, -1.00, 229.0, 1545.0)" opacity="0.50"></image></g></g><g><clipPath id="clip0x7fc595834210"><path d="M 232.0 1544.0 L 332.0 1544.0 L 332.0 1444.0 L 232.0 1444.0 Z M 232.0 1544.0 "></path></clipPath><g clip-path="url(#clip0x7fc595834210)"><g><clipPath id="clip0x7fc5958327d0"><path d="M 228.0 1438.0 L 336.0 1438.0 L 336.0 1550.0 L 228.0 1550.0 Z M 228.0 1438.0 "></path></clipPath><g clip-path="url(#clip0x7fc5958327d0)"><image xlink:href="../../E784A514-92E6-4957-BD8E-85726FA88C3F/assets/C3C0FC898C94653CAF8AD846D6CCD108.png" width="600.00" height="600.00" transform="matrix(0.50, 0.00, -0.00, -0.50, 232.0, 1544.0)"></image></g></g></g></g></g></g></svg>