<?xml version="1.0" encoding="UTF-8" standalone="no"?><svg xmlns="http://www.w3.org/2000/svg" xmlns:xlink="http://www.w3.org/1999/xlink" clip-rule="evenodd" stroke-miterlimit="10" viewBox="0 0 1200 1800"><desc>SVG generated by Keynote</desc><defs><pattern id="E16A7CB3-8551-4CB0-A493-287FF6D955AB" patternUnits="userSpaceOnUse" width="600" height="600" viewBox="0 0 600 600"><image xlink:href="../../E784A514-92E6-4957-BD8E-85726FA88C3F/assets/C3C0FC898C94653CAF8AD846D6CCD108.png" width="600.00" height="600.00"></image></pattern><pattern id="034CF533-10F3-49FB-81D5-824FB9F1D1EF" patternUnits="userSpaceOnUse" width="600" height="600" viewBox="0 0 600 600"><image xlink:href="../../E784A514-92E6-4957-BD8E-85726FA88C3F/assets/C3C0FC898C94653CAF8AD846D6CCD108.png" width="600.00" height="600.00"></image></pattern></defs><g transform="matrix(1.00, 0.00, -0.00, -1.00, 0.0, 1800.0)"><path d="M 0.0 1800.0 L 1200.0 1800.0 L 1200.0 0.0 L 0.0 0.0 Z M 0.0 1800.0 " fill="#FEFFFF"></path><image xlink:href="../../E784A514-92E6-4957-BD8E-85726FA88C3F/assets/B12F1F2EBD6425245A83D1B8C8F2B3AD.png" width="1200.00" height="1800.00" transform="matrix(1.00, 0.00, -0.00, -1.00, 0.0, 1800.0)"></image><g><clipPath id="clip0x7fc5947d2510"><path d="M 186.0 34.0 L 1015.0 34.0 L 1015.0 1766.0 L 186.0 1766.0 Z M 186.0 34.0 "></path></clipPath><g clip-path="url(#clip0x7fc5947d2510)"><image xlink:href="../../E784A514-92E6-4957-BD8E-85726FA88C3F/assets/399FA4876057B1559A3CA25AFD5D453D.png" width="829.00" height="1732.00" transform="matrix(1.00, 0.00, -0.00, -1.00, 186.0, 1766.0)"></image></g></g><image xlink:href="../../E784A514-92E6-4957-BD8E-85726FA88C3F/assets/F41B7E91FC6D6D7CBB8B7CBB59A38601.png" width="3455.00" height="505.00" transform="matrix(0.24, 0.00, -0.00, -0.24, 185.5, 34.0)"></image><g opacity="0.00"><g><clipPath id="clip0x7fc595838450"><path d="M 222.0 628.0 L 966.0 628.0 L 966.0 1196.0 L 222.0 1196.0 Z M 222.0 628.0 "></path></clipPath><g clip-path="url(#clip0x7fc595838450)"><image xlink:href="../../9F8AC0EC-5214-42B3-8230-ACD57D3D19B2/assets/EB31CD9F44C3A1B9AC3D9FF7E3329C42.png" width="742.00" height="561.00" transform="matrix(1.00, 0.00, -0.00, -1.00, 223.0, 1191.0)" opacity="0.50"></image></g></g><g><clipPath id="clip0x7fc59583c740"><path d="M 226.0 1190.0 L 962.0 1190.0 L 962.0 635.0 L 226.0 635.0 Z M 226.0 1190.0 "></path></clipPath><g clip-path="url(#clip0x7fc59583c740)"><g><clipPath id="clip0x7fc59583be20"><path d="M 222.0 628.0 L 966.0 628.0 L 966.0 1196.0 L 222.0 1196.0 Z M 222.0 628.0 "></path></clipPath><g clip-path="url(#clip0x7fc59583be20)"><path d="M 226.0 635.0 L 962.0 635.0 L 962.0 1190.0 L 226.0 1190.0 Z M 226.0 635.0 " fill="url(#E16A7CB3-8551-4CB0-A493-287FF6D955AB)"></path></g></g></g></g></g><g opacity="0.00"><g><clipPath id="clip0x7fc5947e00d0"><path d="M 222.0 239.0 L 966.0 239.0 L 966.0 558.0 L 222.0 558.0 Z M 222.0 239.0 "></path></clipPath><g clip-path="url(#clip0x7fc5947e00d0)"><image xlink:href="../../9F8AC0EC-5214-42B3-8230-ACD57D3D19B2/assets/8444626549B07A3BDC0395EC05A5FB4B.png" width="742.00" height="313.00" transform="matrix(1.00, 0.00, -0.00, -1.00, 223.0, 553.0)" opacity="0.50"></image></g></g><g><clipPath id="clip0x7fc59583d980"><path d="M 226.0 552.0 L 962.0 552.0 L 962.0 245.0 L 226.0 245.0 Z M 226.0 552.0 "></path></clipPath><g clip-path="url(#clip0x7fc59583d980)"><g><clipPath id="clip0x7fc59583e120"><path d="M 222.0 239.0 L 966.0 239.0 L 966.0 558.0 L 222.0 558.0 Z M 222.0 239.0 "></path></clipPath><g clip-path="url(#clip0x7fc59583e120)"><path d="M 226.0 245.0 L 962.0 245.0 L 962.0 552.0 L 226.0 552.0 Z M 226.0 245.0 " fill="url(#034CF533-10F3-49FB-81D5-824FB9F1D1EF)"></path></g></g></g></g></g><g opacity="0.00"><g><clipPath id="clip0x7fc5941c6b90"><path d="M 228.0 1438.0 L 336.0 1438.0 L 336.0 1550.0 L 228.0 1550.0 Z M 228.0 1438.0 "></path></clipPath><g clip-path="url(#clip0x7fc5941c6b90)"><image xlink:href="../../9F8AC0EC-5214-42B3-8230-ACD57D3D19B2/assets/7E27D7D74B2DA92C336D6AD660991410.png" width="106.00" height="106.00" transform="matrix(1.00, 0.00, -0.00, -1.00, 229.0, 1545.0)" opacity="0.50"></image></g></g><g><clipPath id="clip0x7fc59583feb0"><path d="M 232.0 1544.0 L 332.0 1544.0 L 332.0 1444.0 L 232.0 1444.0 Z M 232.0 1544.0 "></path></clipPath><g clip-path="url(#clip0x7fc59583feb0)"><g><clipPath id="clip0x7fc595840650"><path d="M 228.0 1438.0 L 336.0 1438.0 L 336.0 1550.0 L 228.0 1550.0 Z M 228.0 1438.0 "></path></clipPath><g clip-path="url(#clip0x7fc595840650)"><image xlink:href="../../E784A514-92E6-4957-BD8E-85726FA88C3F/assets/C3C0FC898C94653CAF8AD846D6CCD108.png" width="600.00" height="600.00" transform="matrix(0.50, 0.00, -0.00, -0.50, 232.0, 1544.0)"></image></g></g></g></g></g></g></svg>