<?xml version="1.0" encoding="UTF-8" standalone="no"?><svg xmlns="http://www.w3.org/2000/svg" xmlns:xlink="http://www.w3.org/1999/xlink" clip-rule="evenodd" stroke-miterlimit="10" viewBox="0 0 1200 1800"><desc>SVG generated by Keynote</desc><defs><pattern id="C0CE5109-792B-466E-A5B9-D20180B2B706" patternUnits="userSpaceOnUse" width="600" height="600" viewBox="0 0 600 600"><image xlink:href="../../E784A514-92E6-4957-BD8E-85726FA88C3F/assets/C3C0FC898C94653CAF8AD846D6CCD108.png" width="600.00" height="600.00"></image></pattern><pattern id="C98EC10E-55A2-444A-AC3E-420B59E126AF" patternUnits="userSpaceOnUse" width="600" height="600" viewBox="0 0 600 600"><image xlink:href="../../E784A514-92E6-4957-BD8E-85726FA88C3F/assets/C3C0FC898C94653CAF8AD846D6CCD108.png" width="600.00" height="600.00"></image></pattern><pattern id="012FAA22-35DD-4708-A585-69C048128D5D" patternUnits="userSpaceOnUse" width="600" height="600" viewBox="0 0 600 600"><image xlink:href="../../E784A514-92E6-4957-BD8E-85726FA88C3F/assets/C3C0FC898C94653CAF8AD846D6CCD108.png" width="600.00" height="600.00"></image></pattern></defs><g transform="matrix(1.00, 0.00, -0.00, -1.00, 0.0, 1800.0)"><path d="M 0.0 1800.0 L 1200.0 1800.0 L 1200.0 0.0 L 0.0 0.0 Z M 0.0 1800.0 " fill="#FEFFFF"></path><image xlink:href="../../E784A514-92E6-4957-BD8E-85726FA88C3F/assets/B12F1F2EBD6425245A83D1B8C8F2B3AD.png" width="1200.00" height="1800.00" transform="matrix(1.00, 0.00, -0.00, -1.00, 0.0, 1800.0)"></image><g><clipPath id="clip0x7fc5958b1e40"><path d="M 186.0 34.0 L 1015.0 34.0 L 1015.0 1766.0 L 186.0 1766.0 Z M 186.0 34.0 "></path></clipPath><g clip-path="url(#clip0x7fc5958b1e40)"><image xlink:href="../../E784A514-92E6-4957-BD8E-85726FA88C3F/assets/399FA4876057B1559A3CA25AFD5D453D.png" width="829.00" height="1732.00" transform="matrix(1.00, 0.00, -0.00, -1.00, 186.0, 1766.0)"></image></g></g><image xlink:href="../../E784A514-92E6-4957-BD8E-85726FA88C3F/assets/F41B7E91FC6D6D7CBB8B7CBB59A38601.png" width="3455.00" height="505.00" transform="matrix(0.24, 0.00, -0.00, -0.24, 185.5, 34.0)"></image><g opacity="0.00"><g><clipPath id="clip0x7fc5958b5090"><path d="M 276.0 512.0 L 924.0 512.0 L 924.0 648.0 L 276.0 648.0 Z M 276.0 512.0 "></path></clipPath><g clip-path="url(#clip0x7fc5958b5090)"><image xlink:href="../../DB936FEF-8109-42CC-82F4-7C5410DECE49/assets/23195AB5215ED37C745093BB96F618D4.png" width="644.00" height="130.00" transform="matrix(1.00, 0.00, -0.00, -1.00, 277.8, 643.0)" opacity="0.50"></image></g></g><g><clipPath id="clip0x7fc5941ce950"><path d="M 281.0 642.0 L 919.0 642.0 L 919.0 518.0 L 281.0 518.0 Z M 280.8 642.0 "></path></clipPath><g clip-path="url(#clip0x7fc5941ce950)"><g><clipPath id="clip0x7fc5941d11e0"><path d="M 276.0 512.0 L 924.0 512.0 L 924.0 648.0 L 276.0 648.0 Z M 276.0 512.0 "></path></clipPath><g clip-path="url(#clip0x7fc5941d11e0)"><path d="M 281.0 518.0 L 919.0 518.0 L 919.0 642.0 L 281.0 642.0 Z M 281.0 518.0 " fill="url(#C0CE5109-792B-466E-A5B9-D20180B2B706)"></path></g></g></g></g></g><g opacity="0.00"><g><clipPath id="clip0x7fc5959866f0"><path d="M 276.0 344.0 L 924.0 344.0 L 924.0 480.0 L 276.0 480.0 Z M 276.0 344.0 "></path></clipPath><g clip-path="url(#clip0x7fc5959866f0)"><image xlink:href="../../DB936FEF-8109-42CC-82F4-7C5410DECE49/assets/23195AB5215ED37C745093BB96F618D4.png" width="644.00" height="130.00" transform="matrix(1.00, 0.00, -0.00, -1.00, 277.8, 475.0)" opacity="0.50"></image></g></g><g><clipPath id="clip0x7fc5958b6da0"><path d="M 281.0 474.0 L 919.0 474.0 L 919.0 350.0 L 281.0 350.0 Z M 280.8 474.0 "></path></clipPath><g clip-path="url(#clip0x7fc5958b6da0)"><g><clipPath id="clip0x7fc5958b63e0"><path d="M 276.0 344.0 L 924.0 344.0 L 924.0 480.0 L 276.0 480.0 Z M 276.0 344.0 "></path></clipPath><g clip-path="url(#clip0x7fc5958b63e0)"><path d="M 281.0 350.0 L 919.0 350.0 L 919.0 474.0 L 281.0 474.0 Z M 281.0 350.0 " fill="url(#C98EC10E-55A2-444A-AC3E-420B59E126AF)"></path></g></g></g></g></g><g opacity="0.00"><g><clipPath id="clip0x7fc5958ba1f0"><path d="M 276.0 762.0 L 924.0 762.0 L 924.0 898.0 L 276.0 898.0 Z M 276.0 762.0 "></path></clipPath><g clip-path="url(#clip0x7fc5958ba1f0)"><image xlink:href="../../DB936FEF-8109-42CC-82F4-7C5410DECE49/assets/23195AB5215ED37C745093BB96F618D4.png" width="644.00" height="130.00" transform="matrix(1.00, 0.00, -0.00, -1.00, 277.8, 893.0)" opacity="0.50"></image></g></g><g><clipPath id="clip0x7fc5958bb510"><path d="M 281.0 892.0 L 919.0 892.0 L 919.0 768.0 L 281.0 768.0 Z M 280.8 892.0 "></path></clipPath><g clip-path="url(#clip0x7fc5958bb510)"><g><clipPath id="clip0x7fc5958bc320"><path d="M 276.0 762.0 L 924.0 762.0 L 924.0 898.0 L 276.0 898.0 Z M 276.0 762.0 "></path></clipPath><g clip-path="url(#clip0x7fc5958bc320)"><path d="M 281.0 768.0 L 919.0 768.0 L 919.0 892.0 L 281.0 892.0 Z M 281.0 768.0 " fill="url(#012FAA22-35DD-4708-A585-69C048128D5D)"></path></g></g></g></g></g><g opacity="0.00"><g><clipPath id="clip0x7fc59598c700"><path d="M 228.0 1438.0 L 336.0 1438.0 L 336.0 1550.0 L 228.0 1550.0 Z M 228.0 1438.0 "></path></clipPath><g clip-path="url(#clip0x7fc59598c700)"><image xlink:href="../../9F8AC0EC-5214-42B3-8230-ACD57D3D19B2/assets/7E27D7D74B2DA92C336D6AD660991410.png" width="106.00" height="106.00" transform="matrix(1.00, 0.00, -0.00, -1.00, 229.0, 1545.0)" opacity="0.50"></image></g></g><g><clipPath id="clip0x7fc59598dfe0"><path d="M 232.0 1544.0 L 332.0 1544.0 L 332.0 1444.0 L 232.0 1444.0 Z M 232.0 1544.0 "></path></clipPath><g clip-path="url(#clip0x7fc59598dfe0)"><g><clipPath id="clip0x7fc59598e780"><path d="M 228.0 1438.0 L 336.0 1438.0 L 336.0 1550.0 L 228.0 1550.0 Z M 228.0 1438.0 "></path></clipPath><g clip-path="url(#clip0x7fc59598e780)"><image xlink:href="../../E784A514-92E6-4957-BD8E-85726FA88C3F/assets/C3C0FC898C94653CAF8AD846D6CCD108.png" width="600.00" height="600.00" transform="matrix(0.50, 0.00, -0.00, -0.50, 232.0, 1544.0)"></image></g></g></g></g></g></g></svg>