<?xml version="1.0" encoding="UTF-8" standalone="no"?><svg xmlns="http://www.w3.org/2000/svg" xmlns:xlink="http://www.w3.org/1999/xlink" clip-rule="evenodd" stroke-miterlimit="10" viewBox="0 0 1200 1800"><desc>SVG generated by Keynote</desc><defs><pattern id="45F16690-A8B6-4965-805F-7E3E1DFCB610" patternUnits="userSpaceOnUse" width="600" height="600" viewBox="0 0 600 600"><image xlink:href="../../E784A514-92E6-4957-BD8E-85726FA88C3F/assets/C3C0FC898C94653CAF8AD846D6CCD108.png" width="600.00" height="600.00"></image></pattern></defs><g transform="matrix(1.00, 0.00, -0.00, -1.00, 0.0, 1800.0)"><path d="M 0.0 1800.0 L 1200.0 1800.0 L 1200.0 0.0 L 0.0 0.0 Z M 0.0 1800.0 " fill="#FEFFFF"></path><image xlink:href="../../E784A514-92E6-4957-BD8E-85726FA88C3F/assets/B12F1F2EBD6425245A83D1B8C8F2B3AD.png" width="1200.00" height="1800.00" transform="matrix(1.00, 0.00, -0.00, -1.00, 0.0, 1800.0)"></image><g><clipPath id="clip0x7fc59597af60"><path d="M 186.0 34.0 L 1015.0 34.0 L 1015.0 1766.0 L 186.0 1766.0 Z M 186.0 34.0 "></path></clipPath><g clip-path="url(#clip0x7fc59597af60)"><image xlink:href="../../E784A514-92E6-4957-BD8E-85726FA88C3F/assets/399FA4876057B1559A3CA25AFD5D453D.png" width="829.00" height="1732.00" transform="matrix(1.00, 0.00, -0.00, -1.00, 186.0, 1766.0)"></image></g></g><image xlink:href="../../E784A514-92E6-4957-BD8E-85726FA88C3F/assets/F41B7E91FC6D6D7CBB8B7CBB59A38601.png" width="3455.00" height="505.00" transform="matrix(0.24, 0.00, -0.00, -0.24, 185.5, 34.0)"></image><g opacity="0.00"><g><clipPath id="clip0x7fc59597df90"><path d="M 253.0 534.0 L 947.0 534.0 L 947.0 672.0 L 253.0 672.0 Z M 253.0 534.0 "></path></clipPath><g clip-path="url(#clip0x7fc59597df90)"><image xlink:href="../../DB936FEF-8109-42CC-82F4-7C5410DECE49/assets/6A6F442AF3581FF578081A87C0A587C9.png" width="692.00" height="131.00" transform="matrix(1.00, 0.00, -0.00, -1.00, 254.1, 667.0)" opacity="0.50"></image></g></g><g><clipPath id="clip0x7fc59597f090"><path d="M 257.0 666.0 L 943.0 666.0 L 943.0 541.0 L 257.0 541.0 Z M 257.1 666.0 "></path></clipPath><g clip-path="url(#clip0x7fc59597f090)"><g><clipPath id="clip0x7fc595980160"><path d="M 253.0 534.0 L 947.0 534.0 L 947.0 672.0 L 253.0 672.0 Z M 253.0 534.0 "></path></clipPath><g clip-path="url(#clip0x7fc595980160)"><path d="M 257.0 541.0 L 943.0 541.0 L 943.0 666.0 L 257.0 666.0 Z M 257.0 541.0 " fill="url(#45F16690-A8B6-4965-805F-7E3E1DFCB610)"></path></g></g></g></g></g><g opacity="0.00"><g><clipPath id="clip0x7fc595982d50"><path d="M 228.0 1438.0 L 336.0 1438.0 L 336.0 1550.0 L 228.0 1550.0 Z M 228.0 1438.0 "></path></clipPath><g clip-path="url(#clip0x7fc595982d50)"><image xlink:href="../../9F8AC0EC-5214-42B3-8230-ACD57D3D19B2/assets/7E27D7D74B2DA92C336D6AD660991410.png" width="106.00" height="106.00" transform="matrix(1.00, 0.00, -0.00, -1.00, 229.0, 1545.0)" opacity="0.50"></image></g></g><g><clipPath id="clip0x7fc595984660"><path d="M 232.0 1544.0 L 332.0 1544.0 L 332.0 1444.0 L 232.0 1444.0 Z M 232.0 1544.0 "></path></clipPath><g clip-path="url(#clip0x7fc595984660)"><g><clipPath id="clip0x7fc595984e00"><path d="M 228.0 1438.0 L 336.0 1438.0 L 336.0 1550.0 L 228.0 1550.0 Z M 228.0 1438.0 "></path></clipPath><g clip-path="url(#clip0x7fc595984e00)"><image xlink:href="../../E784A514-92E6-4957-BD8E-85726FA88C3F/assets/C3C0FC898C94653CAF8AD846D6CCD108.png" width="600.00" height="600.00" transform="matrix(0.50, 0.00, -0.00, -0.50, 232.0, 1544.0)"></image></g></g></g></g></g></g></svg>